<svg xmlns="http://www.w3.org/2000/svg" width="880" height="412" viewBox="0 0 880 412" role="img" aria-label="rjson speed relative to orjson per benchmark case, loads and dumps">
<rect x="0.5" y="0.5" width="879" height="411" rx="12" fill="#1a1a19" stroke="rgba(255,255,255,0.10)"/>
<text x="24.0" y="34.0" font-family='system-ui, -apple-system, "Segoe UI", Helvetica, Arial, sans-serif' font-size="15" font-weight="600" fill="#ffffff" text-anchor="start">Speed relative to orjson, per case (higher is better)</text>
<text x="24.0" y="92.5" font-family='system-ui, -apple-system, "Segoe UI", Helvetica, Arial, sans-serif' font-size="13" font-weight="400" fill="#c3c2b7" text-anchor="start">twitter.json</text>
<text x="24.0" y="120.5" font-family='system-ui, -apple-system, "Segoe UI", Helvetica, Arial, sans-serif' font-size="13" font-weight="400" fill="#c3c2b7" text-anchor="start">citm_catalog.json</text>
<text x="24.0" y="148.5" font-family='system-ui, -apple-system, "Segoe UI", Helvetica, Arial, sans-serif' font-size="13" font-weight="400" fill="#c3c2b7" text-anchor="start">canada.json</text>
<text x="24.0" y="176.5" font-family='system-ui, -apple-system, "Segoe UI", Helvetica, Arial, sans-serif' font-size="13" font-weight="400" fill="#c3c2b7" text-anchor="start">github.json</text>
<text x="24.0" y="204.5" font-family='system-ui, -apple-system, "Segoe UI", Helvetica, Arial, sans-serif' font-size="13" font-weight="400" fill="#c3c2b7" text-anchor="start">small dict</text>
<text x="24.0" y="232.5" font-family='system-ui, -apple-system, "Segoe UI", Helvetica, Arial, sans-serif' font-size="13" font-weight="400" fill="#c3c2b7" text-anchor="start">records</text>
<text x="24.0" y="260.5" font-family='system-ui, -apple-system, "Segoe UI", Helvetica, Arial, sans-serif' font-size="13" font-weight="400" fill="#c3c2b7" text-anchor="start">unicode strings</text>
<text x="24.0" y="288.5" font-family='system-ui, -apple-system, "Segoe UI", Helvetica, Arial, sans-serif' font-size="13" font-weight="400" fill="#c3c2b7" text-anchor="start">escaped strings</text>
<text x="24.0" y="316.5" font-family='system-ui, -apple-system, "Segoe UI", Helvetica, Arial, sans-serif' font-size="13" font-weight="400" fill="#c3c2b7" text-anchor="start">int array</text>
<text x="24.0" y="344.5" font-family='system-ui, -apple-system, "Segoe UI", Helvetica, Arial, sans-serif' font-size="13" font-weight="400" fill="#c3c2b7" text-anchor="start">float array</text>
<text x="152.0" y="60.0" font-family='system-ui, -apple-system, "Segoe UI", Helvetica, Arial, sans-serif' font-size="13" font-weight="600" fill="#ffffff" text-anchor="start">loads</text>
<line x1="152.0" y1="70" x2="152.0" y2="356" stroke="#5a5955" stroke-width="1"/>
<text x="152.0" y="372.0" font-family='system-ui, -apple-system, "Segoe UI", Helvetica, Arial, sans-serif' font-size="11" font-weight="400" fill="#9a988f" text-anchor="middle" style="font-variant-numeric: tabular-nums">0×</text>
<line x1="200.0" y1="70" x2="200.0" y2="356" stroke="#2c2c2a" stroke-width="1"/>
<line x1="248.0" y1="70" x2="248.0" y2="356" stroke="#5a5955" stroke-width="1"/>
<text x="248.0" y="372.0" font-family='system-ui, -apple-system, "Segoe UI", Helvetica, Arial, sans-serif' font-size="11" font-weight="400" fill="#9a988f" text-anchor="middle" style="font-variant-numeric: tabular-nums">1×</text>
<line x1="296.0" y1="70" x2="296.0" y2="356" stroke="#2c2c2a" stroke-width="1"/>
<line x1="344.0" y1="70" x2="344.0" y2="356" stroke="#2c2c2a" stroke-width="1"/>
<text x="344.0" y="372.0" font-family='system-ui, -apple-system, "Segoe UI", Helvetica, Arial, sans-serif' font-size="11" font-weight="400" fill="#9a988f" text-anchor="middle" style="font-variant-numeric: tabular-nums">2×</text>
<line x1="392.0" y1="70" x2="392.0" y2="356" stroke="#2c2c2a" stroke-width="1"/>
<line x1="440.0" y1="70" x2="440.0" y2="356" stroke="#2c2c2a" stroke-width="1"/>
<text x="440.0" y="372.0" font-family='system-ui, -apple-system, "Segoe UI", Helvetica, Arial, sans-serif' font-size="11" font-weight="400" fill="#9a988f" text-anchor="middle" style="font-variant-numeric: tabular-nums">3×</text>
<text x="252.0" y="66.0" font-family='system-ui, -apple-system, "Segoe UI", Helvetica, Arial, sans-serif' font-size="11" font-weight="400" fill="#9a988f" text-anchor="start">orjson</text>
<path d="M152.0,80.0 H288.4 Q292.4,80.0 292.4,84.0 V92.0 Q292.4,96.0 288.4,96.0 H152.0 Z" fill="#3987e5"/>
<text x="298.4" y="92.5" font-family='system-ui, -apple-system, "Segoe UI", Helvetica, Arial, sans-serif' font-size="12" font-weight="400" fill="#c3c2b7" text-anchor="start" style="font-variant-numeric: tabular-nums">1.46×</text>
<path d="M152.0,108.0 H254.0 Q258.0,108.0 258.0,112.0 V120.0 Q258.0,124.0 254.0,124.0 H152.0 Z" fill="#3987e5"/>
<text x="264.0" y="120.5" font-family='system-ui, -apple-system, "Segoe UI", Helvetica, Arial, sans-serif' font-size="12" font-weight="400" fill="#c3c2b7" text-anchor="start" style="font-variant-numeric: tabular-nums">1.10×</text>
<path d="M152.0,136.0 H253.2 Q257.2,136.0 257.2,140.0 V148.0 Q257.2,152.0 253.2,152.0 H152.0 Z" fill="#3987e5"/>
<text x="263.2" y="148.5" font-family='system-ui, -apple-system, "Segoe UI", Helvetica, Arial, sans-serif' font-size="12" font-weight="400" fill="#c3c2b7" text-anchor="start" style="font-variant-numeric: tabular-nums">1.10×</text>
<path d="M152.0,164.0 H292.0 Q296.0,164.0 296.0,168.0 V176.0 Q296.0,180.0 292.0,180.0 H152.0 Z" fill="#3987e5"/>
<text x="302.0" y="176.5" font-family='system-ui, -apple-system, "Segoe UI", Helvetica, Arial, sans-serif' font-size="12" font-weight="400" fill="#c3c2b7" text-anchor="start" style="font-variant-numeric: tabular-nums">1.50×</text>
<path d="M152.0,192.0 H300.9 Q304.9,192.0 304.9,196.0 V204.0 Q304.9,208.0 300.9,208.0 H152.0 Z" fill="#3987e5"/>
<text x="310.9" y="204.5" font-family='system-ui, -apple-system, "Segoe UI", Helvetica, Arial, sans-serif' font-size="12" font-weight="400" fill="#c3c2b7" text-anchor="start" style="font-variant-numeric: tabular-nums">1.59×</text>
<path d="M152.0,220.0 H284.1 Q288.1,220.0 288.1,224.0 V232.0 Q288.1,236.0 284.1,236.0 H152.0 Z" fill="#3987e5"/>
<text x="294.1" y="232.5" font-family='system-ui, -apple-system, "Segoe UI", Helvetica, Arial, sans-serif' font-size="12" font-weight="400" fill="#c3c2b7" text-anchor="start" style="font-variant-numeric: tabular-nums">1.42×</text>
<path d="M152.0,248.0 H316.0 Q320.0,248.0 320.0,252.0 V260.0 Q320.0,264.0 316.0,264.0 H152.0 Z" fill="#3987e5"/>
<text x="326.0" y="260.5" font-family='system-ui, -apple-system, "Segoe UI", Helvetica, Arial, sans-serif' font-size="12" font-weight="400" fill="#c3c2b7" text-anchor="start" style="font-variant-numeric: tabular-nums">1.75×</text>
<path d="M152.0,276.0 H251.0 Q255.0,276.0 255.0,280.0 V288.0 Q255.0,292.0 251.0,292.0 H152.0 Z" fill="#3987e5"/>
<text x="261.0" y="288.5" font-family='system-ui, -apple-system, "Segoe UI", Helvetica, Arial, sans-serif' font-size="12" font-weight="400" fill="#c3c2b7" text-anchor="start" style="font-variant-numeric: tabular-nums">1.07×</text>
<path d="M152.0,304.0 H258.2 Q262.2,304.0 262.2,308.0 V316.0 Q262.2,320.0 258.2,320.0 H152.0 Z" fill="#3987e5"/>
<text x="268.2" y="316.5" font-family='system-ui, -apple-system, "Segoe UI", Helvetica, Arial, sans-serif' font-size="12" font-weight="400" fill="#c3c2b7" text-anchor="start" style="font-variant-numeric: tabular-nums">1.15×</text>
<path d="M152.0,332.0 H246.3 Q250.3,332.0 250.3,336.0 V344.0 Q250.3,348.0 246.3,348.0 H152.0 Z" fill="#3987e5"/>
<text x="256.3" y="344.5" font-family='system-ui, -apple-system, "Segoe UI", Helvetica, Arial, sans-serif' font-size="12" font-weight="400" fill="#c3c2b7" text-anchor="start" style="font-variant-numeric: tabular-nums">1.02×</text>
<text x="524.0" y="60.0" font-family='system-ui, -apple-system, "Segoe UI", Helvetica, Arial, sans-serif' font-size="13" font-weight="600" fill="#ffffff" text-anchor="start">dumps</text>
<line x1="524.0" y1="70" x2="524.0" y2="356" stroke="#5a5955" stroke-width="1"/>
<text x="524.0" y="372.0" font-family='system-ui, -apple-system, "Segoe UI", Helvetica, Arial, sans-serif' font-size="11" font-weight="400" fill="#9a988f" text-anchor="middle" style="font-variant-numeric: tabular-nums">0×</text>
<line x1="572.0" y1="70" x2="572.0" y2="356" stroke="#2c2c2a" stroke-width="1"/>
<line x1="620.0" y1="70" x2="620.0" y2="356" stroke="#5a5955" stroke-width="1"/>
<text x="620.0" y="372.0" font-family='system-ui, -apple-system, "Segoe UI", Helvetica, Arial, sans-serif' font-size="11" font-weight="400" fill="#9a988f" text-anchor="middle" style="font-variant-numeric: tabular-nums">1×</text>
<line x1="668.0" y1="70" x2="668.0" y2="356" stroke="#2c2c2a" stroke-width="1"/>
<line x1="716.0" y1="70" x2="716.0" y2="356" stroke="#2c2c2a" stroke-width="1"/>
<text x="716.0" y="372.0" font-family='system-ui, -apple-system, "Segoe UI", Helvetica, Arial, sans-serif' font-size="11" font-weight="400" fill="#9a988f" text-anchor="middle" style="font-variant-numeric: tabular-nums">2×</text>
<line x1="764.0" y1="70" x2="764.0" y2="356" stroke="#2c2c2a" stroke-width="1"/>
<line x1="812.0" y1="70" x2="812.0" y2="356" stroke="#2c2c2a" stroke-width="1"/>
<text x="812.0" y="372.0" font-family='system-ui, -apple-system, "Segoe UI", Helvetica, Arial, sans-serif' font-size="11" font-weight="400" fill="#9a988f" text-anchor="middle" style="font-variant-numeric: tabular-nums">3×</text>
<text x="624.0" y="66.0" font-family='system-ui, -apple-system, "Segoe UI", Helvetica, Arial, sans-serif' font-size="11" font-weight="400" fill="#9a988f" text-anchor="start">orjson</text>
<path d="M524.0,80.0 H671.3 Q675.3,80.0 675.3,84.0 V92.0 Q675.3,96.0 671.3,96.0 H524.0 Z" fill="#3987e5"/>
<text x="681.3" y="92.5" font-family='system-ui, -apple-system, "Segoe UI", Helvetica, Arial, sans-serif' font-size="12" font-weight="400" fill="#c3c2b7" text-anchor="start" style="font-variant-numeric: tabular-nums">1.58×</text>
<path d="M524.0,108.0 H653.9 Q657.9,108.0 657.9,112.0 V120.0 Q657.9,124.0 653.9,124.0 H524.0 Z" fill="#3987e5"/>
<text x="663.9" y="120.5" font-family='system-ui, -apple-system, "Segoe UI", Helvetica, Arial, sans-serif' font-size="12" font-weight="400" fill="#c3c2b7" text-anchor="start" style="font-variant-numeric: tabular-nums">1.39×</text>
<path d="M524.0,136.0 H639.3 Q643.3,136.0 643.3,140.0 V148.0 Q643.3,152.0 639.3,152.0 H524.0 Z" fill="#3987e5"/>
<text x="649.3" y="148.5" font-family='system-ui, -apple-system, "Segoe UI", Helvetica, Arial, sans-serif' font-size="12" font-weight="400" fill="#c3c2b7" text-anchor="start" style="font-variant-numeric: tabular-nums">1.24×</text>
<path d="M524.0,164.0 H688.2 Q692.2,164.0 692.2,168.0 V176.0 Q692.2,180.0 688.2,180.0 H524.0 Z" fill="#3987e5"/>
<text x="698.2" y="176.5" font-family='system-ui, -apple-system, "Segoe UI", Helvetica, Arial, sans-serif' font-size="12" font-weight="400" fill="#c3c2b7" text-anchor="start" style="font-variant-numeric: tabular-nums">1.75×</text>
<path d="M524.0,192.0 H656.1 Q660.1,192.0 660.1,196.0 V204.0 Q660.1,208.0 656.1,208.0 H524.0 Z" fill="#3987e5"/>
<text x="666.1" y="204.5" font-family='system-ui, -apple-system, "Segoe UI", Helvetica, Arial, sans-serif' font-size="12" font-weight="400" fill="#c3c2b7" text-anchor="start" style="font-variant-numeric: tabular-nums">1.42×</text>
<path d="M524.0,220.0 H675.2 Q679.2,220.0 679.2,224.0 V232.0 Q679.2,236.0 675.2,236.0 H524.0 Z" fill="#3987e5"/>
<text x="685.2" y="232.5" font-family='system-ui, -apple-system, "Segoe UI", Helvetica, Arial, sans-serif' font-size="12" font-weight="400" fill="#c3c2b7" text-anchor="start" style="font-variant-numeric: tabular-nums">1.62×</text>
<path d="M524.0,248.0 H622.9 Q626.9,248.0 626.9,252.0 V260.0 Q626.9,264.0 622.9,264.0 H524.0 Z" fill="#3987e5"/>
<text x="632.9" y="260.5" font-family='system-ui, -apple-system, "Segoe UI", Helvetica, Arial, sans-serif' font-size="12" font-weight="400" fill="#c3c2b7" text-anchor="start" style="font-variant-numeric: tabular-nums">1.07×</text>
<path d="M524.0,276.0 H792.9 Q796.9,276.0 796.9,280.0 V288.0 Q796.9,292.0 792.9,292.0 H524.0 Z" fill="#3987e5"/>
<text x="802.9" y="288.5" font-family='system-ui, -apple-system, "Segoe UI", Helvetica, Arial, sans-serif' font-size="12" font-weight="400" fill="#c3c2b7" text-anchor="start" style="font-variant-numeric: tabular-nums">2.84×</text>
<path d="M524.0,304.0 H613.6 Q617.6,304.0 617.6,308.0 V316.0 Q617.6,320.0 613.6,320.0 H524.0 Z" fill="#3987e5"/>
<text x="623.6" y="316.5" font-family='system-ui, -apple-system, "Segoe UI", Helvetica, Arial, sans-serif' font-size="12" font-weight="400" fill="#c3c2b7" text-anchor="start" style="font-variant-numeric: tabular-nums">0.98×</text>
<path d="M524.0,332.0 H646.8 Q650.8,332.0 650.8,336.0 V344.0 Q650.8,348.0 646.8,348.0 H524.0 Z" fill="#3987e5"/>
<text x="656.8" y="344.5" font-family='system-ui, -apple-system, "Segoe UI", Helvetica, Arial, sans-serif' font-size="12" font-weight="400" fill="#c3c2b7" text-anchor="start" style="font-variant-numeric: tabular-nums">1.32×</text>
<text x="24.0" y="396.0" font-family='system-ui, -apple-system, "Segoe UI", Helvetica, Arial, sans-serif' font-size="12" font-weight="400" fill="#9a988f" text-anchor="start">Bar = orjson time ÷ rjson time; dumps returns bytes for both · median per call · CPython 3.13.12 · orjson 3.12.0 · x86_64</text>
</svg>