<svg xmlns="http://www.w3.org/2000/svg" width="880" height="412" viewBox="0 0 880 412" role="img" aria-label="rjson speed relative to orjson per benchmark case, loads and dumps">
<rect x="0.5" y="0.5" width="879" height="411" rx="12" fill="#1a1a19" stroke="rgba(255,255,255,0.10)"/>
<text x="24.0" y="34.0" font-family='system-ui, -apple-system, "Segoe UI", Helvetica, Arial, sans-serif' font-size="15" font-weight="600" fill="#ffffff" text-anchor="start">Speed relative to orjson, per case (higher is better)</text>
<text x="24.0" y="92.5" font-family='system-ui, -apple-system, "Segoe UI", Helvetica, Arial, sans-serif' font-size="13" font-weight="400" fill="#c3c2b7" text-anchor="start">twitter.json</text>
<text x="24.0" y="120.5" font-family='system-ui, -apple-system, "Segoe UI", Helvetica, Arial, sans-serif' font-size="13" font-weight="400" fill="#c3c2b7" text-anchor="start">citm_catalog.json</text>
<text x="24.0" y="148.5" font-family='system-ui, -apple-system, "Segoe UI", Helvetica, Arial, sans-serif' font-size="13" font-weight="400" fill="#c3c2b7" text-anchor="start">canada.json</text>
<text x="24.0" y="176.5" font-family='system-ui, -apple-system, "Segoe UI", Helvetica, Arial, sans-serif' font-size="13" font-weight="400" fill="#c3c2b7" text-anchor="start">github.json</text>
<text x="24.0" y="204.5" font-family='system-ui, -apple-system, "Segoe UI", Helvetica, Arial, sans-serif' font-size="13" font-weight="400" fill="#c3c2b7" text-anchor="start">small dict</text>
<text x="24.0" y="232.5" font-family='system-ui, -apple-system, "Segoe UI", Helvetica, Arial, sans-serif' font-size="13" font-weight="400" fill="#c3c2b7" text-anchor="start">records</text>
<text x="24.0" y="260.5" font-family='system-ui, -apple-system, "Segoe UI", Helvetica, Arial, sans-serif' font-size="13" font-weight="400" fill="#c3c2b7" text-anchor="start">unicode strings</text>
<text x="24.0" y="288.5" font-family='system-ui, -apple-system, "Segoe UI", Helvetica, Arial, sans-serif' font-size="13" font-weight="400" fill="#c3c2b7" text-anchor="start">escaped strings</text>
<text x="24.0" y="316.5" font-family='system-ui, -apple-system, "Segoe UI", Helvetica, Arial, sans-serif' font-size="13" font-weight="400" fill="#c3c2b7" text-anchor="start">int array</text>
<text x="24.0" y="344.5" font-family='system-ui, -apple-system, "Segoe UI", Helvetica, Arial, sans-serif' font-size="13" font-weight="400" fill="#c3c2b7" text-anchor="start">float array</text>
<text x="152.0" y="60.0" font-family='system-ui, -apple-system, "Segoe UI", Helvetica, Arial, sans-serif' font-size="13" font-weight="600" fill="#ffffff" text-anchor="start">loads</text>
<line x1="152.0" y1="70" x2="152.0" y2="356" stroke="#5a5955" stroke-width="1"/>
<text x="152.0" y="372.0" font-family='system-ui, -apple-system, "Segoe UI", Helvetica, Arial, sans-serif' font-size="11" font-weight="400" fill="#9a988f" text-anchor="middle" style="font-variant-numeric: tabular-nums">0×</text>
<line x1="200.0" y1="70" x2="200.0" y2="356" stroke="#2c2c2a" stroke-width="1"/>
<line x1="248.0" y1="70" x2="248.0" y2="356" stroke="#5a5955" stroke-width="1"/>
<text x="248.0" y="372.0" font-family='system-ui, -apple-system, "Segoe UI", Helvetica, Arial, sans-serif' font-size="11" font-weight="400" fill="#9a988f" text-anchor="middle" style="font-variant-numeric: tabular-nums">1×</text>
<line x1="296.0" y1="70" x2="296.0" y2="356" stroke="#2c2c2a" stroke-width="1"/>
<line x1="344.0" y1="70" x2="344.0" y2="356" stroke="#2c2c2a" stroke-width="1"/>
<text x="344.0" y="372.0" font-family='system-ui, -apple-system, "Segoe UI", Helvetica, Arial, sans-serif' font-size="11" font-weight="400" fill="#9a988f" text-anchor="middle" style="font-variant-numeric: tabular-nums">2×</text>
<line x1="392.0" y1="70" x2="392.0" y2="356" stroke="#2c2c2a" stroke-width="1"/>
<line x1="440.0" y1="70" x2="440.0" y2="356" stroke="#2c2c2a" stroke-width="1"/>
<text x="440.0" y="372.0" font-family='system-ui, -apple-system, "Segoe UI", Helvetica, Arial, sans-serif' font-size="11" font-weight="400" fill="#9a988f" text-anchor="middle" style="font-variant-numeric: tabular-nums">3×</text>
<text x="252.0" y="66.0" font-family='system-ui, -apple-system, "Segoe UI", Helvetica, Arial, sans-serif' font-size="11" font-weight="400" fill="#9a988f" text-anchor="start">orjson</text>
<path d="M152.0,80.0 H277.8 Q281.8,80.0 281.8,84.0 V92.0 Q281.8,96.0 277.8,96.0 H152.0 Z" fill="#3987e5"/>
<text x="287.8" y="92.5" font-family='system-ui, -apple-system, "Segoe UI", Helvetica, Arial, sans-serif' font-size="12" font-weight="400" fill="#c3c2b7" text-anchor="start" style="font-variant-numeric: tabular-nums">1.35×</text>
<path d="M152.0,108.0 H255.1 Q259.1,108.0 259.1,112.0 V120.0 Q259.1,124.0 255.1,124.0 H152.0 Z" fill="#3987e5"/>
<text x="265.1" y="120.5" font-family='system-ui, -apple-system, "Segoe UI", Helvetica, Arial, sans-serif' font-size="12" font-weight="400" fill="#c3c2b7" text-anchor="start" style="font-variant-numeric: tabular-nums">1.12×</text>
<path d="M152.0,136.0 H256.3 Q260.3,136.0 260.3,140.0 V148.0 Q260.3,152.0 256.3,152.0 H152.0 Z" fill="#3987e5"/>
<text x="266.3" y="148.5" font-family='system-ui, -apple-system, "Segoe UI", Helvetica, Arial, sans-serif' font-size="12" font-weight="400" fill="#c3c2b7" text-anchor="start" style="font-variant-numeric: tabular-nums">1.13×</text>
<path d="M152.0,164.0 H292.1 Q296.1,164.0 296.1,168.0 V176.0 Q296.1,180.0 292.1,180.0 H152.0 Z" fill="#3987e5"/>
<text x="302.1" y="176.5" font-family='system-ui, -apple-system, "Segoe UI", Helvetica, Arial, sans-serif' font-size="12" font-weight="400" fill="#c3c2b7" text-anchor="start" style="font-variant-numeric: tabular-nums">1.50×</text>
<path d="M152.0,192.0 H300.2 Q304.2,192.0 304.2,196.0 V204.0 Q304.2,208.0 300.2,208.0 H152.0 Z" fill="#3987e5"/>
<text x="310.2" y="204.5" font-family='system-ui, -apple-system, "Segoe UI", Helvetica, Arial, sans-serif' font-size="12" font-weight="400" fill="#c3c2b7" text-anchor="start" style="font-variant-numeric: tabular-nums">1.58×</text>
<path d="M152.0,220.0 H285.8 Q289.8,220.0 289.8,224.0 V232.0 Q289.8,236.0 285.8,236.0 H152.0 Z" fill="#3987e5"/>
<text x="295.8" y="232.5" font-family='system-ui, -apple-system, "Segoe UI", Helvetica, Arial, sans-serif' font-size="12" font-weight="400" fill="#c3c2b7" text-anchor="start" style="font-variant-numeric: tabular-nums">1.44×</text>
<path d="M152.0,248.0 H307.1 Q311.1,248.0 311.1,252.0 V260.0 Q311.1,264.0 307.1,264.0 H152.0 Z" fill="#3987e5"/>
<text x="317.1" y="260.5" font-family='system-ui, -apple-system, "Segoe UI", Helvetica, Arial, sans-serif' font-size="12" font-weight="400" fill="#c3c2b7" text-anchor="start" style="font-variant-numeric: tabular-nums">1.66×</text>
<path d="M152.0,276.0 H258.4 Q262.4,276.0 262.4,280.0 V288.0 Q262.4,292.0 258.4,292.0 H152.0 Z" fill="#3987e5"/>
<text x="268.4" y="288.5" font-family='system-ui, -apple-system, "Segoe UI", Helvetica, Arial, sans-serif' font-size="12" font-weight="400" fill="#c3c2b7" text-anchor="start" style="font-variant-numeric: tabular-nums">1.15×</text>
<path d="M152.0,304.0 H257.3 Q261.3,304.0 261.3,308.0 V316.0 Q261.3,320.0 257.3,320.0 H152.0 Z" fill="#3987e5"/>
<text x="267.3" y="316.5" font-family='system-ui, -apple-system, "Segoe UI", Helvetica, Arial, sans-serif' font-size="12" font-weight="400" fill="#c3c2b7" text-anchor="start" style="font-variant-numeric: tabular-nums">1.14×</text>
<path d="M152.0,332.0 H242.4 Q246.4,332.0 246.4,336.0 V344.0 Q246.4,348.0 242.4,348.0 H152.0 Z" fill="#3987e5"/>
<text x="252.4" y="344.5" font-family='system-ui, -apple-system, "Segoe UI", Helvetica, Arial, sans-serif' font-size="12" font-weight="400" fill="#c3c2b7" text-anchor="start" style="font-variant-numeric: tabular-nums">0.98×</text>
<text x="524.0" y="60.0" font-family='system-ui, -apple-system, "Segoe UI", Helvetica, Arial, sans-serif' font-size="13" font-weight="600" fill="#ffffff" text-anchor="start">dumps</text>
<line x1="524.0" y1="70" x2="524.0" y2="356" stroke="#5a5955" stroke-width="1"/>
<text x="524.0" y="372.0" font-family='system-ui, -apple-system, "Segoe UI", Helvetica, Arial, sans-serif' font-size="11" font-weight="400" fill="#9a988f" text-anchor="middle" style="font-variant-numeric: tabular-nums">0×</text>
<line x1="572.0" y1="70" x2="572.0" y2="356" stroke="#2c2c2a" stroke-width="1"/>
<line x1="620.0" y1="70" x2="620.0" y2="356" stroke="#5a5955" stroke-width="1"/>
<text x="620.0" y="372.0" font-family='system-ui, -apple-system, "Segoe UI", Helvetica, Arial, sans-serif' font-size="11" font-weight="400" fill="#9a988f" text-anchor="middle" style="font-variant-numeric: tabular-nums">1×</text>
<line x1="668.0" y1="70" x2="668.0" y2="356" stroke="#2c2c2a" stroke-width="1"/>
<line x1="716.0" y1="70" x2="716.0" y2="356" stroke="#2c2c2a" stroke-width="1"/>
<text x="716.0" y="372.0" font-family='system-ui, -apple-system, "Segoe UI", Helvetica, Arial, sans-serif' font-size="11" font-weight="400" fill="#9a988f" text-anchor="middle" style="font-variant-numeric: tabular-nums">2×</text>
<line x1="764.0" y1="70" x2="764.0" y2="356" stroke="#2c2c2a" stroke-width="1"/>
<line x1="812.0" y1="70" x2="812.0" y2="356" stroke="#2c2c2a" stroke-width="1"/>
<text x="812.0" y="372.0" font-family='system-ui, -apple-system, "Segoe UI", Helvetica, Arial, sans-serif' font-size="11" font-weight="400" fill="#9a988f" text-anchor="middle" style="font-variant-numeric: tabular-nums">3×</text>
<text x="624.0" y="66.0" font-family='system-ui, -apple-system, "Segoe UI", Helvetica, Arial, sans-serif' font-size="11" font-weight="400" fill="#9a988f" text-anchor="start">orjson</text>
<path d="M524.0,80.0 H665.4 Q669.4,80.0 669.4,84.0 V92.0 Q669.4,96.0 665.4,96.0 H524.0 Z" fill="#3987e5"/>
<text x="675.4" y="92.5" font-family='system-ui, -apple-system, "Segoe UI", Helvetica, Arial, sans-serif' font-size="12" font-weight="400" fill="#c3c2b7" text-anchor="start" style="font-variant-numeric: tabular-nums">1.52×</text>
<path d="M524.0,108.0 H651.5 Q655.5,108.0 655.5,112.0 V120.0 Q655.5,124.0 651.5,124.0 H524.0 Z" fill="#3987e5"/>
<text x="661.5" y="120.5" font-family='system-ui, -apple-system, "Segoe UI", Helvetica, Arial, sans-serif' font-size="12" font-weight="400" fill="#c3c2b7" text-anchor="start" style="font-variant-numeric: tabular-nums">1.37×</text>
<path d="M524.0,136.0 H640.5 Q644.5,136.0 644.5,140.0 V148.0 Q644.5,152.0 640.5,152.0 H524.0 Z" fill="#3987e5"/>
<text x="650.5" y="148.5" font-family='system-ui, -apple-system, "Segoe UI", Helvetica, Arial, sans-serif' font-size="12" font-weight="400" fill="#c3c2b7" text-anchor="start" style="font-variant-numeric: tabular-nums">1.26×</text>
<path d="M524.0,164.0 H685.4 Q689.4,164.0 689.4,168.0 V176.0 Q689.4,180.0 685.4,180.0 H524.0 Z" fill="#3987e5"/>
<text x="695.4" y="176.5" font-family='system-ui, -apple-system, "Segoe UI", Helvetica, Arial, sans-serif' font-size="12" font-weight="400" fill="#c3c2b7" text-anchor="start" style="font-variant-numeric: tabular-nums">1.72×</text>
<path d="M524.0,192.0 H651.7 Q655.7,192.0 655.7,196.0 V204.0 Q655.7,208.0 651.7,208.0 H524.0 Z" fill="#3987e5"/>
<text x="661.7" y="204.5" font-family='system-ui, -apple-system, "Segoe UI", Helvetica, Arial, sans-serif' font-size="12" font-weight="400" fill="#c3c2b7" text-anchor="start" style="font-variant-numeric: tabular-nums">1.37×</text>
<path d="M524.0,220.0 H677.7 Q681.7,220.0 681.7,224.0 V232.0 Q681.7,236.0 677.7,236.0 H524.0 Z" fill="#3987e5"/>
<text x="687.7" y="232.5" font-family='system-ui, -apple-system, "Segoe UI", Helvetica, Arial, sans-serif' font-size="12" font-weight="400" fill="#c3c2b7" text-anchor="start" style="font-variant-numeric: tabular-nums">1.64×</text>
<path d="M524.0,248.0 H622.1 Q626.1,248.0 626.1,252.0 V260.0 Q626.1,264.0 622.1,264.0 H524.0 Z" fill="#3987e5"/>
<text x="632.1" y="260.5" font-family='system-ui, -apple-system, "Segoe UI", Helvetica, Arial, sans-serif' font-size="12" font-weight="400" fill="#c3c2b7" text-anchor="start" style="font-variant-numeric: tabular-nums">1.06×</text>
<path d="M524.0,276.0 H797.6 Q801.6,276.0 801.6,280.0 V288.0 Q801.6,292.0 797.6,292.0 H524.0 Z" fill="#3987e5"/>
<text x="807.6" y="288.5" font-family='system-ui, -apple-system, "Segoe UI", Helvetica, Arial, sans-serif' font-size="12" font-weight="400" fill="#c3c2b7" text-anchor="start" style="font-variant-numeric: tabular-nums">2.89×</text>
<path d="M524.0,304.0 H627.1 Q631.1,304.0 631.1,308.0 V316.0 Q631.1,320.0 627.1,320.0 H524.0 Z" fill="#3987e5"/>
<text x="637.1" y="316.5" font-family='system-ui, -apple-system, "Segoe UI", Helvetica, Arial, sans-serif' font-size="12" font-weight="400" fill="#c3c2b7" text-anchor="start" style="font-variant-numeric: tabular-nums">1.12×</text>
<path d="M524.0,332.0 H642.0 Q646.0,332.0 646.0,336.0 V344.0 Q646.0,348.0 642.0,348.0 H524.0 Z" fill="#3987e5"/>
<text x="652.0" y="344.5" font-family='system-ui, -apple-system, "Segoe UI", Helvetica, Arial, sans-serif' font-size="12" font-weight="400" fill="#c3c2b7" text-anchor="start" style="font-variant-numeric: tabular-nums">1.27×</text>
<text x="24.0" y="396.0" font-family='system-ui, -apple-system, "Segoe UI", Helvetica, Arial, sans-serif' font-size="12" font-weight="400" fill="#9a988f" text-anchor="start">Bar = orjson time ÷ rjson time; dumps returns bytes for both · median per call · CPython 3.13.12 · orjson 3.12.0 · x86_64</text>
</svg>